<?xml version="1.0" encoding="UTF-8" standalone="no"?>
<svg xmlns:ffdec="https://www.free-decompiler.com/flash" xmlns:xlink="http://www.w3.org/1999/xlink" ffdec:objectType="shape" height="101.45px" width="204.2px" xmlns="http://www.w3.org/2000/svg">
  <g transform="matrix(1.0, 0.0, 0.0, 1.0, -240.2, 60.5)">
    <path d="M241.8 -56.85 Q243.4 -56.2 243.4 -54.35 L243.35 -53.3 Q243.2 -53.0 242.5 -53.0 240.2 -53.0 240.2 -54.6 240.2 -57.5 241.8 -56.85 M253.0 -58.05 L252.75 -56.7 Q252.35 -55.8 251.7 -55.8 L249.9 -56.2 249.8 -57.4 Q249.8 -60.35 251.4 -60.5 253.0 -60.7 253.0 -58.05 M417.0 -38.1 Q416.6 -37.6 415.2 -37.6 412.8 -37.6 412.1 -38.4 L411.9 -39.15 Q411.9 -40.3 414.55 -41.0 417.2 -41.7 417.2 -39.0 L417.0 -38.1 M444.4 16.15 Q444.4 17.1 441.7 17.95 L436.05 18.85 Q435.4 18.85 434.8 18.4 436.5 17.3 437.95 16.55 L438.05 16.5 438.2 16.45 438.25 16.4 Q444.4 13.1 444.4 16.15 M408.15 21.35 L410.45 20.0 413.65 18.45 414.7 18.65 417.1 18.15 Q418.0 18.15 418.05 19.0 418.05 19.5 415.75 21.7 413.3 24.05 412.2 24.05 L409.15 23.45 406.15 22.65 Q406.15 22.55 408.15 21.35 M368.1 27.95 L367.95 27.35 Q367.95 26.9 369.75 25.6 371.9 24.1 373.8 24.6 381.3 26.65 381.3 27.65 L381.15 28.15 Q382.45 27.6 386.4 26.7 392.25 25.4 392.25 26.6 392.25 27.75 389.1 29.9 385.95 32.05 384.3 32.05 L380.55 28.6 380.65 28.5 375.65 28.65 368.1 27.95 M335.1 35.85 Q335.1 37.2 322.6 40.95 321.7 40.95 320.7 39.35 L319.85 37.75 Q319.85 37.05 321.25 37.05 L329.2 36.0 333.2 35.05 Q335.1 34.7 335.1 35.85 M359.3 33.75 Q359.8 33.4 360.3 33.4 361.0 33.4 362.05 36.45 362.05 37.25 360.9 37.25 L357.35 36.45 354.4 35.6 Q354.4 34.45 357.55 34.2 L359.3 33.75" fill="#ffffff" fill-rule="evenodd" stroke="none"/>
  </g>
</svg>
