<?xml version="1.0" encoding="UTF-8" standalone="no"?>
<svg xmlns:ffdec="https://www.free-decompiler.com/flash" xmlns:xlink="http://www.w3.org/1999/xlink" ffdec:objectType="shape" height="138.75px" width="138.85px" xmlns="http://www.w3.org/2000/svg">
  <g transform="matrix(1.0, 0.0, 0.0, 1.0, 69.55, 68.7)">
    <path d="M-57.7 -37.3 L-57.75 -37.3 -57.5 -37.15 -57.25 -37.0 -56.85 -36.75 -56.9 -36.75 -54.3 -34.3 -59.15 -36.25 -58.25 -37.6 -57.7 -37.3 M56.0 -40.4 Q53.4 -40.05 51.0 -38.45 L54.85 -41.85 56.0 -40.4 M69.0 -0.35 Q69.0 -8.5 67.35 -16.05 69.3 -8.1 69.3 0.65 69.3 29.4 48.95 49.7 28.6 70.05 -0.15 70.05 -28.9 70.05 -49.25 49.7 -69.55 29.4 -69.55 0.65 -69.55 -8.5 -67.5 -16.8 -68.45 -12.6 -68.95 -8.1 L-68.1 -7.85 -66.9 -7.35 -61.85 -6.7 -61.3 -6.6 -61.95 -6.6 -69.25 -5.95 -69.45 -0.35 Q-69.45 19.85 -58.75 37.3 L-57.35 36.45 -54.55 34.65 Q-50.9 33.35 -47.2 30.65 L-50.4 33.2 Q-53.8 36.0 -57.05 39.35 -53.6 44.15 -49.2 48.6 -28.9 68.85 -0.2 68.85 15.7 68.85 30.9 61.7 L30.6 61.1 30.45 60.8 30.2 60.3 Q29.8 56.5 25.0 48.25 L23.6 45.85 Q28.1 53.25 32.95 60.3 41.95 55.3 48.75 48.6 69.0 28.35 69.0 -0.35 M5.3 -68.6 Q4.1 -66.95 3.55 -64.9 L3.4 -68.7 5.3 -68.6" fill="#ffffff" fill-rule="evenodd" stroke="none"/>
  </g>
</svg>
