<?xml version="1.0" encoding="UTF-8" standalone="no"?>
<svg xmlns:ffdec="https://www.free-decompiler.com/flash" xmlns:xlink="http://www.w3.org/1999/xlink" ffdec:objectType="shape" height="492.95px" width="304.75px" xmlns="http://www.w3.org/2000/svg">
  <g transform="matrix(1.0, 0.0, 0.0, 1.0, 0.0, 819.85)">
    <path d="M25.7 -815.6 Q95.4 -833.0 174.05 -778.95 240.2 -731.15 275.95 -648.4 L281.95 -633.2 Q297.5 -591.4 302.5 -550.1 307.85 -505.75 300.6 -464.95 297.85 -449.7 292.8 -432.0 290.1 -422.5 286.1 -410.2 286.65 -438.95 282.15 -468.3 271.65 -536.65 236.2 -593.85 246.25 -547.9 236.9 -496.5 228.5 -449.95 205.1 -403.1 187.2 -367.1 158.4 -326.9 189.3 -390.5 197.25 -462.8 206.1 -543.85 184.35 -620.35 189.95 -582.45 185.6 -543.6 185.3 -565.6 178.1 -586.65 170.9 -607.85 157.7 -625.35 164.55 -596.25 166.35 -563.95 159.8 -607.45 132.65 -644.2 105.5 -680.95 65.85 -699.95 75.45 -699.95 86.95 -696.6 94.05 -694.55 107.2 -689.35 L99.1 -700.45 Q106.5 -697.2 115.35 -696.95 116.0 -724.3 82.65 -755.1 99.45 -754.5 110.0 -752.2 99.05 -768.65 84.95 -779.65 70.8 -790.65 46.2 -799.25 21.55 -807.9 0.0 -801.2 14.0 -810.05 25.7 -815.6" fill="#ffffff" fill-rule="evenodd" stroke="none"/>
  </g>
</svg>
