<?xml version="1.0" encoding="UTF-8" standalone="no"?>
<svg xmlns:ffdec="https://www.free-decompiler.com/flash" xmlns:xlink="http://www.w3.org/1999/xlink" ffdec:objectType="shape" height="130.5px" width="234.9px" xmlns="http://www.w3.org/2000/svg">
  <g transform="matrix(1.0, 0.0, 0.0, 1.0, -14.4, -3.85)">
    <path d="M178.65 33.9 Q206.0 43.0 234.9 47.1 218.4 49.0 249.3 55.75 L246.15 134.35 Q225.25 122.25 199.85 117.05 241.1 112.0 197.2 99.4 158.1 88.2 184.2 110.75 158.65 96.45 127.6 89.2 159.6 82.85 118.4 70.45 82.75 59.85 100.0 80.4 66.75 64.55 29.45 55.3 50.85 42.95 14.4 40.4 17.15 24.8 22.95 11.0 46.45 17.25 35.85 3.85 57.05 11.0 78.9 12.25 59.3 20.25 89.9 28.2 128.65 38.35 96.95 17.2 126.15 27.3 157.85 29.15 138.95 35.85 168.95 42.45 196.4 48.4 178.65 33.9" fill="url(#gradient0)" fill-rule="evenodd" stroke="none"/>
  </g>
  <defs>
    <radialGradient cx="0" cy="0" fx="-608.0" fy="0" gradientTransform="matrix(0.1612, 0.0442, -0.0442, 0.1612, 131.15, 54.0)" gradientUnits="userSpaceOnUse" id="gradient0" r="819.2" spreadMethod="pad">
      <stop offset="0.0" stop-color="#ffffff"/>
      <stop offset="0.1411764705882353" stop-color="#717ab7"/>
      <stop offset="0.6196078431372549" stop-color="#330033"/>
      <stop offset="1.0" stop-color="#000000"/>
    </radialGradient>
  </defs>
</svg>
