<?xml version="1.0" encoding="UTF-8" standalone="no"?>
<svg xmlns:ffdec="https://www.free-decompiler.com/flash" xmlns:xlink="http://www.w3.org/1999/xlink" ffdec:objectType="morphshape" height="84.0px" width="240.1px" xmlns="http://www.w3.org/2000/svg">
  <g transform="matrix(1.0, 0.0, 0.0, 1.0, 214.6, 32.05)">
    <path d="M-209.1 4.45 L-204.5 5.2 -201.55 5.8 Q-195.55 7.0 -190.4 8.5 -189.05 8.9 -187.75 9.3 -185.4 10.1 -183.05 10.9 L-182.95 11.0 -181.25 12.0 Q-174.7 10.85 -167.25 10.9 L-166.35 10.9 Q-164.05 10.9 -161.8 11.9 -155.05 14.85 -149.8 19.25 -143.5 24.5 -139.35 31.85 -137.0 35.95 -135.35 40.75 -134.3 43.7 -132.85 46.45 -127.25 56.95 -121.0 47.45 L-120.3 46.3 Q-113.7 35.0 -107.45 32.4 -101.2 29.8 -89.5 35.0 L-87.5 35.9 Q-76.85 40.6 -66.05 44.9 -63.3 45.85 -60.55 46.75 -55.85 47.95 -50.9 48.25 -49.05 48.3 -47.2 48.3 L-45.8 48.25 -45.7 48.25 Q-36.55 47.75 -28.4 43.2 -23.15 44.7 -18.05 44.85 L-16.65 44.85 Q-10.1 44.8 -3.75 42.5 L0.2 40.85 4.7 38.45 5.7 37.8 Q8.85 35.65 11.95 33.55 L16.25 29.85 Q19.35 26.8 21.4 23.2 24.9 17.0 25.45 9.2 L25.5 6.95 25.4 3.05 25.25 1.55 Q24.6 -4.55 22.3 -9.8 20.6 -13.7 18.0 -17.1 14.1 -22.2 8.2 -26.25 L7.3 -26.85 4.5 -28.2 Q-4.85 -32.4 -14.4 -31.55 -19.3 -31.15 -24.25 -29.4 -26.8 -28.5 -29.4 -27.25 -33.4 -25.3 -37.75 -23.55 L-39.1 -23.05 Q-41.7 -19.35 -44.9 -16.3 -49.4 -12.05 -55.0 -9.1 -56.85 -8.1 -58.85 -7.4 L-62.2 -6.45 Q-77.4 -2.7 -92.95 -1.55 -95.1 -1.15 -97.15 -2.2 -101.1 -4.35 -104.7 -6.9 -113.3 -13.1 -119.65 -21.9 L-123.6 -27.9 Q-129.8 -28.4 -133.8 -22.5 -135.95 -19.3 -138.35 -16.45 -143.05 -10.9 -148.65 -6.5 -150.8 -4.8 -153.1 -3.3 -154.45 -2.45 -156.2 -2.25 -160.3 -1.95 -164.2 -3.1 L-165.6 -3.55 Q-168.7 -3.1 -171.8 -2.65 L-182.65 -1.4 -186.25 -1.1 -185.85 -0.7 -185.6 -0.45 Q-186.55 0.15 -188.7 0.8 -190.05 1.15 -191.35 1.5 L-192.95 1.9 -193.1 1.9 -193.4 2.0 -193.9 2.1 Q-195.0 2.35 -196.05 2.55 L-196.8 2.65 -202.4 3.55 -202.9 3.65 -209.1 4.45" fill="#ffffff" fill-rule="evenodd" stroke="none">
      <animate attributeName="fill" dur="2.0s" repeatCount="indefinite" values="#ffffff;#ffffff"/>
      <animate attributeName="fill-opacity" dur="2.0s" repeatCount="indefinite" values="1.0;1.0"/>
      <animate attributeName="d" dur="2.0s" repeatCount="indefinite" values="M-209.1 4.45 L-204.5 5.2 -201.55 5.8 Q-195.55 7.0 -190.4 8.5 -189.05 8.9 -187.75 9.3 -185.4 10.1 -183.05 10.9 L-182.95 11.0 -181.25 12.0 Q-174.7 10.85 -167.25 10.9 L-166.35 10.9 Q-164.05 10.9 -161.8 11.9 -155.05 14.85 -149.8 19.25 -143.5 24.5 -139.35 31.85 -137.0 35.95 -135.35 40.75 -134.3 43.7 -132.85 46.45 -127.25 56.95 -121.0 47.45 L-120.3 46.3 Q-113.7 35.0 -107.45 32.4 -101.2 29.8 -89.5 35.0 L-87.5 35.9 Q-76.85 40.6 -66.05 44.9 -63.3 45.85 -60.55 46.75 -55.85 47.95 -50.9 48.25 -49.05 48.3 -47.2 48.3 L-45.8 48.25 -45.7 48.25 Q-36.55 47.75 -28.4 43.2 -23.15 44.7 -18.05 44.85 L-16.65 44.85 Q-10.1 44.8 -3.75 42.5 L0.2 40.85 4.7 38.45 5.7 37.8 Q8.85 35.65 11.95 33.55 L16.25 29.85 Q19.35 26.8 21.4 23.2 24.9 17.0 25.45 9.2 L25.5 6.95 25.4 3.05 25.25 1.55 Q24.6 -4.55 22.3 -9.8 20.6 -13.7 18.0 -17.1 14.1 -22.2 8.2 -26.25 L7.3 -26.85 4.5 -28.2 Q-4.85 -32.4 -14.4 -31.55 -19.3 -31.15 -24.25 -29.4 -26.8 -28.5 -29.4 -27.25 -33.4 -25.3 -37.75 -23.55 L-39.1 -23.05 Q-41.7 -19.35 -44.9 -16.3 -49.4 -12.05 -55.0 -9.1 -56.85 -8.1 -58.85 -7.4 L-62.2 -6.45 Q-77.4 -2.7 -92.95 -1.55 -95.1 -1.15 -97.15 -2.2 -101.1 -4.35 -104.7 -6.9 -113.3 -13.1 -119.65 -21.9 L-123.6 -27.9 Q-129.8 -28.4 -133.8 -22.5 -135.95 -19.3 -138.35 -16.45 -143.05 -10.9 -148.65 -6.5 -150.8 -4.8 -153.1 -3.3 -154.45 -2.45 -156.2 -2.25 -160.3 -1.95 -164.2 -3.1 L-165.6 -3.55 Q-168.7 -3.1 -171.8 -2.65 L-182.65 -1.4 -186.25 -1.1 -185.85 -0.7 -185.6 -0.45 Q-186.55 0.15 -188.7 0.8 -190.05 1.15 -191.35 1.5 L-192.95 1.9 -193.1 1.9 -193.4 2.0 -193.9 2.1 Q-195.0 2.35 -196.05 2.55 L-196.8 2.65 -202.4 3.55 -202.9 3.65 -209.1 4.45;M-214.6 7.55 L-210.0 8.2 -206.85 8.7 Q-201.05 9.8 -195.3 10.85 -193.9 11.15 -193.05 12.25 -191.15 14.85 -191.15 16.9 L-191.15 17.0 -189.9 15.65 Q-184.75 10.6 -177.5 9.7 L-176.5 9.7 Q-174.15 9.75 -171.85 9.8 -161.05 10.6 -160.35 16.55 -159.5 23.9 -149.25 27.25 -144.55 27.4 -139.9 27.55 -136.9 26.75 -133.95 25.95 -127.6 23.75 -119.8 19.05 L-118.4 18.2 Q-109.65 13.25 -100.65 11.1 -91.5 8.85 -82.05 9.55 L-79.95 9.75 Q-64.9 11.35 -56.95 15.65 -54.0 17.25 -52.05 19.25 -48.4 22.9 -44.75 26.55 -42.9 27.6 -41.6 28.6 L-40.6 29.5 -40.55 29.55 Q-32.65 34.8 -24.8 40.05 -17.15 44.6 -14.8 44.25 L-13.45 44.1 Q-6.65 43.45 -0.65 40.45 L3.1 38.45 7.6 35.85 8.75 35.15 Q11.8 33.25 14.35 30.7 L17.9 26.55 Q20.4 23.2 21.85 19.35 24.45 12.4 24.95 4.95 L25.05 2.7 24.95 -1.2 24.6 -2.65 Q23.35 -8.4 20.85 -13.5 18.9 -17.3 16.45 -20.7 11.7 -25.8 5.85 -29.05 L4.95 -29.55 2.0 -30.8 Q-6.8 -33.8 -17.05 -29.55 -19.8 -28.3 -24.9 -23.7 -26.95 -21.9 -29.0 -20.15 -32.35 -17.3 -36.1 -14.45 L-37.3 -13.6 Q-42.6 -9.8 -45.9 -10.05 -50.5 -6.1 -56.9 -4.45 -58.95 -4.05 -60.95 -3.65 L-64.6 -4.05 Q-82.2 -6.15 -95.3 -8.95 -97.35 -9.4 -99.4 -9.85 -103.9 -11.05 -108.4 -12.25 -126.0 -17.5 -130.0 -15.65 L-137.6 -14.85 Q-143.95 -13.9 -150.3 -12.95 -157.6 -11.45 -157.45 -9.85 -157.2 -6.75 -169.05 -3.35 -171.65 -2.6 -174.2 -1.9 -175.85 -1.5 -177.5 -1.1 -182.85 0.2 -185.75 0.4 L-187.25 0.45 Q-191.0 0.35 -193.0 -1.8 L-203.75 -2.65 -200.0 -1.85 -199.45 -1.7 -199.05 -1.6 Q-196.1 -0.6 -196.7 0.7 -197.25 2.75 -197.75 3.3 L-198.9 4.25 -199.2 4.45 -199.25 4.65 -199.6 4.85 Q-200.7 5.15 -201.7 5.7 L-202.2 6.0 -207.85 6.35 -208.25 6.45 -214.6 7.55"/>
    </path>
    <path d="M-209.1 4.45 L-202.9 3.65 -202.4 3.55 -196.8 2.65 -196.05 2.55 Q-195.0 2.35 -193.9 2.1 L-193.4 2.0 -193.1 1.9 -192.95 1.9 -191.35 1.5 Q-190.05 1.15 -188.7 0.8 -186.55 0.15 -185.6 -0.45 L-185.85 -0.7 -186.25 -1.1 -182.65 -1.4 -171.8 -2.65 Q-168.7 -3.1 -165.6 -3.55 L-164.2 -3.1 Q-160.3 -1.95 -156.2 -2.25 -154.45 -2.45 -153.1 -3.3 -150.8 -4.8 -148.65 -6.5 -143.05 -10.9 -138.35 -16.45 -135.95 -19.3 -133.8 -22.5 -129.8 -28.4 -123.6 -27.9 L-119.65 -21.9 Q-113.3 -13.1 -104.7 -6.9 -101.1 -4.35 -97.15 -2.2 -95.1 -1.15 -92.95 -1.55 -77.4 -2.7 -62.2 -6.45 L-58.85 -7.4 Q-56.85 -8.1 -55.0 -9.1 -49.4 -12.05 -44.9 -16.3 -41.7 -19.35 -39.1 -23.05 L-37.75 -23.55 Q-33.4 -25.3 -29.4 -27.25 -26.8 -28.5 -24.25 -29.4 -19.3 -31.15 -14.4 -31.55 -4.85 -32.4 4.5 -28.2 L7.3 -26.85 8.2 -26.25 Q14.1 -22.2 18.0 -17.1 20.6 -13.7 22.3 -9.8 24.6 -4.55 25.25 1.55 L25.4 3.05 25.5 6.95 25.45 9.2 Q24.9 17.0 21.4 23.2 19.35 26.8 16.25 29.85 L11.95 33.55 Q8.85 35.65 5.7 37.8 L4.7 38.45 0.2 40.85 -3.75 42.5 Q-10.1 44.8 -16.65 44.85 L-18.05 44.85 Q-23.15 44.7 -28.4 43.2 -36.55 47.75 -45.7 48.25 L-45.8 48.25 -47.2 48.3 Q-49.05 48.3 -50.9 48.25 -55.85 47.95 -60.55 46.75 -63.3 45.85 -66.05 44.9 -76.85 40.6 -87.5 35.9 L-89.5 35.0 Q-101.2 29.8 -107.45 32.4 -113.7 35.0 -120.3 46.3 L-121.0 47.45 Q-127.25 56.95 -132.85 46.45 -134.3 43.7 -135.35 40.75 -137.0 35.95 -139.35 31.85 -143.5 24.5 -149.8 19.25 -155.05 14.85 -161.8 11.9 -164.05 10.9 -166.35 10.9 L-167.25 10.9 Q-174.7 10.85 -181.25 12.0 L-182.95 11.0 -183.05 10.9 Q-185.4 10.1 -187.75 9.3 -189.05 8.9 -190.4 8.5 -195.55 7.0 -201.55 5.8 L-204.5 5.2 -209.1 4.45 Z" fill="none" stroke="#000000" stroke-linecap="round" stroke-linejoin="round" stroke-opacity="0.0" stroke-width="0.0">
      <animate attributeName="stroke" dur="2.0s" repeatCount="indefinite" values="#000000;#000001"/>
      <animate attributeName="stroke-width" dur="2.0s" repeatCount="indefinite" values="0.0;0.0"/>
      <animate attributeName="fill-opacity" dur="2.0s" repeatCount="indefinite" values="0.0;0.0"/>
      <animate attributeName="d" dur="2.0s" repeatCount="indefinite" values="M-209.1 4.45 L-202.9 3.65 -202.4 3.55 -196.8 2.65 -196.05 2.55 Q-195.0 2.35 -193.9 2.1 L-193.4 2.0 -193.1 1.9 -192.95 1.9 -191.35 1.5 Q-190.05 1.15 -188.7 0.8 -186.55 0.15 -185.6 -0.45 L-185.85 -0.7 -186.25 -1.1 -182.65 -1.4 -171.8 -2.65 Q-168.7 -3.1 -165.6 -3.55 L-164.2 -3.1 Q-160.3 -1.95 -156.2 -2.25 -154.45 -2.45 -153.1 -3.3 -150.8 -4.8 -148.65 -6.5 -143.05 -10.9 -138.35 -16.45 -135.95 -19.3 -133.8 -22.5 -129.8 -28.4 -123.6 -27.9 L-119.65 -21.9 Q-113.3 -13.1 -104.7 -6.9 -101.1 -4.35 -97.15 -2.2 -95.1 -1.15 -92.95 -1.55 -77.4 -2.7 -62.2 -6.45 L-58.85 -7.4 Q-56.85 -8.1 -55.0 -9.1 -49.4 -12.05 -44.9 -16.3 -41.7 -19.35 -39.1 -23.05 L-37.75 -23.55 Q-33.4 -25.3 -29.4 -27.25 -26.8 -28.5 -24.25 -29.4 -19.3 -31.15 -14.4 -31.55 -4.85 -32.4 4.5 -28.2 L7.3 -26.85 8.2 -26.25 Q14.1 -22.2 18.0 -17.1 20.6 -13.7 22.3 -9.8 24.6 -4.55 25.25 1.55 L25.4 3.05 25.5 6.95 25.45 9.2 Q24.9 17.0 21.4 23.2 19.35 26.8 16.25 29.85 L11.95 33.55 Q8.85 35.65 5.7 37.8 L4.7 38.45 0.2 40.85 -3.75 42.5 Q-10.1 44.8 -16.65 44.85 L-18.05 44.85 Q-23.15 44.7 -28.4 43.2 -36.55 47.75 -45.7 48.25 L-45.8 48.25 -47.2 48.3 Q-49.05 48.3 -50.9 48.25 -55.85 47.95 -60.55 46.75 -63.3 45.85 -66.05 44.9 -76.85 40.6 -87.5 35.9 L-89.5 35.0 Q-101.2 29.8 -107.45 32.4 -113.7 35.0 -120.3 46.3 L-121.0 47.45 Q-127.25 56.95 -132.85 46.45 -134.3 43.7 -135.35 40.75 -137.0 35.95 -139.35 31.85 -143.5 24.5 -149.8 19.25 -155.05 14.85 -161.8 11.9 -164.05 10.9 -166.35 10.9 L-167.25 10.9 Q-174.7 10.85 -181.25 12.0 L-182.95 11.0 -183.05 10.9 Q-185.4 10.1 -187.75 9.3 -189.05 8.9 -190.4 8.5 -195.55 7.0 -201.55 5.8 L-204.5 5.2 -209.1 4.45 Z;M-214.6 7.55 L-208.25 6.45 -207.85 6.35 -202.2 6.0 -201.7 5.7 Q-200.7 5.15 -199.6 4.85 L-199.25 4.65 -199.2 4.45 -198.9 4.25 -197.75 3.3 Q-197.25 2.75 -196.7 0.7 -196.1 -0.6 -199.05 -1.6 L-199.45 -1.7 -200.0 -1.85 -203.75 -2.65 -193.0 -1.8 Q-191.0 0.35 -187.25 0.45 L-185.75 0.4 Q-182.85 0.2 -177.5 -1.1 -175.85 -1.5 -174.2 -1.9 -171.65 -2.6 -169.05 -3.35 -157.2 -6.75 -157.45 -9.85 -157.6 -11.45 -150.3 -12.95 -143.95 -13.9 -137.6 -14.85 L-130.0 -15.65 Q-126.0 -17.5 -108.4 -12.25 -103.9 -11.05 -99.4 -9.85 -97.35 -9.4 -95.3 -8.95 -82.2 -6.15 -64.6 -4.05 L-60.95 -3.65 Q-58.95 -4.05 -56.9 -4.45 -50.5 -6.1 -45.9 -10.05 -42.6 -9.8 -37.3 -13.6 L-36.1 -14.45 Q-32.35 -17.3 -29.0 -20.15 -26.95 -21.9 -24.9 -23.7 -19.8 -28.3 -17.05 -29.55 -6.8 -33.8 2.0 -30.8 L4.95 -29.55 5.85 -29.05 Q11.7 -25.8 16.45 -20.7 18.9 -17.3 20.85 -13.5 23.35 -8.4 24.6 -2.65 L24.95 -1.2 25.05 2.7 24.95 4.95 Q24.45 12.4 21.85 19.35 20.4 23.2 17.9 26.55 L14.35 30.7 Q11.8 33.25 8.75 35.15 L7.6 35.85 3.1 38.45 -0.65 40.45 Q-6.65 43.45 -13.45 44.1 L-14.8 44.25 Q-17.15 44.6 -24.8 40.05 -32.65 34.8 -40.55 29.55 L-40.6 29.5 -41.6 28.6 Q-42.9 27.6 -44.75 26.55 -48.4 22.9 -52.05 19.25 -54.0 17.25 -56.95 15.65 -64.9 11.35 -79.95 9.75 L-82.05 9.55 Q-91.5 8.85 -100.65 11.1 -109.65 13.25 -118.4 18.2 L-119.8 19.05 Q-127.6 23.75 -133.95 25.95 -136.9 26.75 -139.9 27.55 -144.55 27.4 -149.25 27.25 -159.5 23.9 -160.35 16.55 -161.05 10.6 -171.85 9.8 -174.15 9.75 -176.5 9.7 L-177.5 9.7 Q-184.75 10.6 -189.9 15.65 L-191.15 17.0 -191.15 16.9 Q-191.15 14.85 -193.05 12.25 -193.9 11.15 -195.3 10.85 -201.05 9.8 -206.85 8.7 L-210.0 8.2 -214.6 7.55 Z"/>
    </path>
  </g>
</svg>
